<?xml version="1.0" encoding="utf-8"?>
<!-- Generator: Adobe Illustrator 16.0.0, SVG Export Plug-In . SVG Version: 6.00 Build 0)  -->
<!DOCTYPE svg PUBLIC "-//W3C//DTD SVG 1.0//EN" "http://www.w3.org/TR/2001/REC-SVG-20010904/DTD/svg10.dtd">
<svg version="1.0" id="Layer_1" xmlns="http://www.w3.org/2000/svg" xmlns:xlink="http://www.w3.org/1999/xlink" x="0px" y="0px"
	 width="200px" height="39.701px" viewBox="0 0 200 39.701" enable-background="new 0 0 200 39.701" xml:space="preserve">
<path fill-rule="evenodd" clip-rule="evenodd" fill="#214961" d="M18.277,39.701H0L11.144,0h18.109c4.121,0,7.303,0.653,9.554,1.959
	c2.247,1.305,3.627,3.005,4.142,5.108c0.518,2.097,0.757,3.986,0.731,5.655c-0.028,1.682-0.32,3.512-0.878,5.496l-0.684,2.432
	c-1.945,6.955-4.715,11.641-8.292,14.051c-3.572,2.414-6.39,3.848-8.443,4.31C23.321,39.469,20.96,39.701,18.277,39.701
	L18.277,39.701z M27.204,6.901H17.54l-7.261,25.895h9.662c1.692,0,3.11-0.119,4.24-0.357c1.133-0.238,2.298-0.838,3.484-1.796
	c1.456-1.254,2.598-2.786,3.423-4.606c0.823-1.826,1.551-3.88,2.191-6.161c0.624-2.207,1.035-4.236,1.237-6.07
	c0.203-1.842-0.019-3.316-0.666-4.416c-0.649-1.107-1.355-1.759-2.127-1.964c-0.772-0.201-1.519-0.335-2.232-0.417
	C28.772,6.936,28.01,6.901,27.204,6.901L27.204,6.901z M46.056,39.701l6.081-9.503h17.285l0.979,9.503h9.28L73.863,0h-8.835
	L37.221,39.701H46.056L46.056,39.701z M56.812,23.193l10.115-15.19l1.758,15.19H56.812L56.812,23.193z M99.776,39.701h-8.665
	l9.167-32.693H87.578l1.939-6.899h34.171l-1.938,6.899h-12.808L99.776,39.701L99.776,39.701z M157.793,0h-13.808
	c-1.436,0-2.893,0.091-4.359,0.276c-1.47,0.178-3.086,0.54-4.854,1.077c-1.771,0.533-3.387,1.374-4.848,2.51
	c-1.463,1.14-2.612,2.175-3.465,3.092c-0.844,0.923-1.657,1.989-2.442,3.204c-0.784,1.212-1.509,2.506-2.189,3.863
	c-0.676,1.362-1.212,2.763-1.617,4.197l-0.775,2.378c-0.875,3.126-1.224,6.032-1.042,8.723c0.188,2.686,1.139,4.989,2.844,6.897
	c1.487,1.403,3.091,2.333,4.82,2.794c1.729,0.458,3.921,0.69,6.57,0.69h14.024l1.94-6.905h-13.697c-1.73,0-3.085-0.119-4.07-0.357
	c-0.979-0.238-1.887-1.033-2.725-2.376c-0.841-1.346-0.792-3.675,0.136-6.979h23.077l1.936-6.908h-23.078
	c0.853-3.053,2.324-5.36,4.398-6.926c2.078-1.566,4.606-2.348,7.588-2.348h13.696L157.793,0L157.793,0z M162.552,39.701h-8.556
	L165.127,0h10.604l8.156,28.601L191.576,0h8.395l-11.138,39.701h-9.604l-8.6-29.984L162.552,39.701z"/>
</svg>
